<svg xmlns="http://www.w3.org/2000/svg" width="35" height="35" fill="none"><g fill="#FFF" fill-rule="evenodd"><path d="M17.5 0C7.835 0 0 7.835 0 17.5S7.835 35 17.5 35 35 27.165 35 17.5 27.165 0 17.5 0m-3.848 8.223c.996-.045 1.314-.056 3.846-.057h.003c2.533 0 2.85.012 3.845.057.994.045 1.672.203 2.267.434a4.6 4.6 0 0 1 1.653 1.076c.52.519.838 1.04 1.077 1.653.23.594.387 1.272.434 2.265.045.996.056 1.314.056 3.849s-.011 2.852-.056 3.848c-.047.993-.204 1.671-.434 2.265a4.6 4.6 0 0 1-1.077 1.653 4.6 4.6 0 0 1-1.652 1.077c-.594.231-1.273.389-2.267.434-.995.045-1.312.056-3.847.056s-2.853-.01-3.848-.056-1.672-.203-2.266-.434a4.6 4.6 0 0 1-1.653-1.077 4.6 4.6 0 0 1-1.076-1.653c-.231-.594-.388-1.272-.434-2.266-.045-.995-.056-1.312-.056-3.847s.011-2.853.056-3.849c.045-.993.202-1.671.433-2.265a4.6 4.6 0 0 1 1.078-1.653 4.6 4.6 0 0 1 1.653-1.076c.593-.231 1.272-.389 2.265-.434"/><path d="M17.19 9.848h-.526v-.002c-1.74.002-2.074.014-2.935.053-.91.042-1.404.193-1.733.322-.435.17-.746.371-1.073.698a2.9 2.9 0 0 0-.698 1.073c-.128.33-.28.823-.322 1.733-.045.984-.054 1.278-.054 3.77s.01 2.788.054 3.772c.042.91.194 1.404.322 1.733.17.436.371.746.698 1.073a2.9 2.9 0 0 0 1.073.698c.33.127.823.28 1.733.322.984.044 1.28.054 3.772.054s2.787-.01 3.771-.054c.91-.042 1.405-.194 1.733-.322.436-.17.746-.372 1.073-.698.327-.327.53-.637.698-1.072.128-.329.28-.823.322-1.733.044-.984.054-1.28.054-3.77s-.01-2.787-.054-3.77c-.042-.91-.194-1.404-.322-1.733a2.9 2.9 0 0 0-.698-1.073 2.9 2.9 0 0 0-1.073-.698c-.329-.128-.823-.28-1.733-.322-.984-.045-1.279-.053-3.771-.053zm5.293 1.55a1.12 1.12 0 1 0 0 2.24 1.12 1.12 0 0 0 0-2.24M12.708 17.5a4.793 4.793 0 1 1 9.586 0 4.793 4.793 0 0 1-9.586 0"/><path d="M17.501 14.389a3.111 3.111 0 1 1 0 6.222 3.111 3.111 0 0 1 0-6.222"/></g></svg>