<svg xmlns="http://www.w3.org/2000/svg" width="90" height="30" fill="none"><path fill="none" d="M0 0h90v30H0z"/><path fill="#A6A6A6" d="M82.671 0H6.335c-.23.002-.457.006-.69.01a10 10 0 0 0-1.504.132c-.496.083-.977.24-1.427.466a4.9 4.9 0 0 0-1.215.878c-.358.353-.656.76-.884 1.207a5 5 0 0 0-.47 1.418Q.02 4.85.011 5.601c-.007.229-.007.458-.011.686V23.5c.004.231.004.455.011.687q.009.751.135 1.49c.082.494.24.972.469 1.418.227.446.526.852.884 1.203a4.7 4.7 0 0 0 1.215.877c.45.227.93.385 1.427.47q.747.122 1.505.132.346.008.69.008l.821.001h75.514l.814-.001c.229 0 .463-.003.692-.008a10 10 0 0 0 1.501-.132 5.1 5.1 0 0 0 1.433-.47c.45-.226.859-.522 1.214-.877.357-.352.656-.758.887-1.203.226-.446.383-.924.464-1.418q.126-.739.14-1.49c.003-.232.003-.456.003-.687q.006-.404.005-.814V7.1q.001-.408-.005-.813 0-.342-.003-.685-.014-.75-.14-1.491a4.9 4.9 0 0 0-.464-1.418A4.85 4.85 0 0 0 87.11.61a5.2 5.2 0 0 0-1.433-.467 10 10 0 0 0-1.5-.131c-.23-.004-.464-.008-.693-.01z"/><path fill="#000" d="M6.339 29.136a31 31 0 0 1-.679-.008 9.6 9.6 0 0 1-1.403-.122 4.4 4.4 0 0 1-1.243-.408 4 4 0 0 1-1.05-.757 4 4 0 0 1-.765-1.04 4.3 4.3 0 0 1-.409-1.234 9 9 0 0 1-.125-1.396c-.004-.157-.01-.68-.01-.68V6.288s.006-.515.01-.666q.01-.701.125-1.394c.071-.43.209-.848.408-1.238.195-.385.453-.737.762-1.04a4.1 4.1 0 0 1 1.052-.762c.391-.196.81-.333 1.241-.405A9.5 9.5 0 0 1 5.662.66L6.34.65h77.142l.686.01a9.5 9.5 0 0 1 1.395.121c.436.074.859.211 1.254.408a4.18 4.18 0 0 1 1.813 1.802c.195.387.33.801.402 1.228q.116.698.13 1.405c.002.211.002.438.002.663.006.28.006.545.006.813v15.586c0 .27 0 .534-.006.8 0 .242 0 .464-.003.693a9 9 0 0 1-.128 1.38c-.07.433-.207.852-.405 1.243-.198.382-.455.73-.763 1.032a4 4 0 0 1-1.05.762 4.5 4.5 0 0 1-1.252.41 9.6 9.6 0 0 1-1.403.12c-.22.006-.45.009-.674.009l-.814.001-76.332-.001z"/><g fill="#FFF"><path d="M18.593 15.117a3.68 3.68 0 0 1 1.77-3.092 3.81 3.81 0 0 0-2.997-1.607c-1.26-.13-2.482.749-3.125.749-.654 0-1.643-.736-2.708-.714a4 4 0 0 0-3.358 2.03c-1.451 2.495-.37 6.16 1.022 8.175.696.987 1.509 2.09 2.573 2.05 1.04-.042 1.43-.658 2.687-.658 1.245 0 1.61.659 2.695.634 1.118-.018 1.82-.992 2.493-1.988.5-.703.884-1.48 1.14-2.303a3.56 3.56 0 0 1-2.192-3.276m-2.05-6.024c.609-.726.91-1.658.836-2.6-.93.097-1.79.539-2.407 1.236a3.44 3.44 0 0 0-.86 2.503c.944.01 1.84-.41 2.43-1.14M31.755 20.21h-3.553l-.853 2.499h-1.506l3.366-9.247h1.564l3.365 9.247h-1.53l-.853-2.5zm-3.185-1.154h2.816L29.998 15h-.039l-1.39 4.056zm12.836.282c0 2.095-1.13 3.442-2.836 3.442a2.31 2.31 0 0 1-2.138-1.18H36.4v3.34h-1.395v-8.973h1.35v1.12h.026a2.42 2.42 0 0 1 2.163-1.192c1.725 0 2.862 1.353 2.862 3.442zm-1.434 0c0-1.365-.71-2.262-1.796-2.262-1.065 0-1.782.916-1.782 2.262 0 1.359.717 2.269 1.782 2.269 1.085 0 1.796-.891 1.796-2.269m8.914 0c0 2.095-1.13 3.442-2.836 3.442a2.31 2.31 0 0 1-2.138-1.18h-.032v3.34h-1.395v-8.973h1.35v1.12h.025a2.42 2.42 0 0 1 2.164-1.192c1.725 0 2.862 1.353 2.862 3.442zm-1.434 0c0-1.365-.71-2.262-1.796-2.262-1.065 0-1.782.916-1.782 2.262 0 1.359.717 2.269 1.782 2.269 1.085 0 1.796-.891 1.796-2.269m6.378.794c.103.917 1.001 1.52 2.228 1.52 1.176 0 2.022-.603 2.022-1.43 0-.717-.51-1.147-1.718-1.442l-1.208-.288c-1.712-.41-2.506-1.205-2.506-2.493 0-1.596 1.401-2.692 3.391-2.692 1.97 0 3.32 1.096 3.366 2.692h-1.408c-.085-.923-.854-1.48-1.977-1.48s-1.893.564-1.893 1.384c0 .654.49 1.038 1.692 1.333l1.027.25c1.913.449 2.708 1.21 2.708 2.563 0 1.73-1.39 2.814-3.599 2.814-2.067 0-3.463-1.058-3.553-2.73zm8.734-5.761v1.596h1.293v1.096h-1.294v3.717c0 .577.259.846.827.846q.23-.004.459-.032v1.09a4 4 0 0 1-.775.064c-1.376 0-1.912-.513-1.912-1.82v-3.866h-.989v-1.095h.989v-1.596zm2.041 4.967c0-2.121 1.26-3.454 3.223-3.454 1.97 0 3.224 1.333 3.224 3.454 0 2.127-1.247 3.455-3.224 3.455-1.976 0-3.223-1.328-3.223-3.455m5.026 0c0-1.455-.672-2.314-1.803-2.314s-1.802.866-1.802 2.314c0 1.461.672 2.314 1.802 2.314s1.803-.853 1.803-2.314m2.572-3.371h1.33v1.147h.032a1.62 1.62 0 0 1 1.635-1.218q.24 0 .478.052v1.294a2 2 0 0 0-.627-.083 1.4 1.4 0 0 0-1.087.444c-.28.298-.413.702-.367 1.107v3.999h-1.394zm9.906 4.762c-.187 1.224-1.389 2.064-2.926 2.064-1.977 0-3.204-1.314-3.204-3.423 0-2.114 1.234-3.486 3.145-3.486 1.88 0 3.063 1.281 3.063 3.326v.474h-4.8v.083c-.045.502.13 1 .48 1.365s.84.564 1.348.545a1.54 1.54 0 0 0 1.57-.948zm-4.715-2.012h3.397a1.6 1.6 0 0 0-.456-1.217 1.64 1.64 0 0 0-1.21-.495 1.73 1.73 0 0 0-1.225.498 1.7 1.7 0 0 0-.506 1.214M27.577 8.38h.6a.748.748 0 0 0 .844-.709c0-.41-.31-.674-.839-.674a.8.8 0 0 0-.904.696h-.656c.022-.386.205-.746.505-.991.3-.247.69-.358 1.077-.31.881 0 1.502.49 1.502 1.196.005.487-.334.91-.813 1.016v.053c.573.025 1.018.505.996 1.074a1.48 1.48 0 0 1-.557 1.01c-.314.248-.717.36-1.116.31-.4.055-.805-.054-1.122-.302a1.47 1.47 0 0 1-.56-1.012h.668c.04.426.433.7 1.014.7.58 0 .96-.308.96-.742 0-.44-.357-.712-.98-.712h-.619zm3.071 1.617c0-.604.453-.952 1.257-1.002l.915-.052v-.29c0-.354-.235-.554-.692-.554-.372 0-.63.136-.704.373h-.646c.068-.576.615-.945 1.382-.945.847 0 1.325.418 1.325 1.127v2.29h-.643v-.47h-.052a1.14 1.14 0 0 1-1.016.526 1.03 1.03 0 0 1-.788-.254 1 1 0 0 1-.338-.75m2.172-.287v-.28l-.825.052c-.466.03-.677.188-.677.483 0 .302.264.478.627.478a.8.8 0 0 0 .875-.733m2.435-1.562v2.797h-.667V7.59h2.226v.557zm5.602 1.119c0 1.065-.543 1.733-1.397 1.733a1.1 1.1 0 0 1-1.04-.563h-.053v1.623H37.7V7.59h.642v.556h.05c.21-.385.62-.62 1.062-.61.86 0 1.403.665 1.403 1.73m-.686 0c0-.71-.338-1.137-.904-1.137-.56 0-.912.437-.912 1.14 0 .698.35 1.136.91 1.136.568 0 .906-.428.906-1.14m1.574 2.879v-.57q.108.013.218.012a.576.576 0 0 0 .611-.468l.05-.163-1.223-3.366h.726l.847 2.664h.053l.845-2.664h.707l-1.26 3.492c-.289.816-.608 1.078-1.297 1.078-.056 0-.215-.006-.277-.015M45.1 9.993h.664c.065.296.344.45.735.45.444 0 .717-.194.717-.496 0-.323-.245-.477-.717-.477h-.506v-.515h.497c.404 0 .61-.153.61-.434 0-.246-.2-.434-.61-.434-.373 0-.645.157-.689.422h-.643c.1-.633.693-1.07 1.332-.982.804 0 1.263.36 1.263.927a.69.69 0 0 1-.533.686v.052c.381.05.665.374.661.755 0 .637-.547 1.06-1.382 1.06-.738 0-1.338-.336-1.4-1.014zm3.742.952V7.59h.661v2.307h.053l1.557-2.307h.662v3.354h-.662v-2.32h-.049l-1.56 2.32zm6.575-2.797h-1.064v2.797h-.668V8.148H52.62V7.59h2.797zm3.593 1.89a1.37 1.37 0 0 1-1.465.97 1.54 1.54 0 0 1-1.184-.505 1.51 1.51 0 0 1-.377-1.224c-.06-.445.077-.893.376-1.23.3-.335.73-.526 1.182-.522.94 0 1.51.637 1.51 1.69v.23h-2.389v.038a.88.88 0 0 0 .236.678.9.9 0 0 0 .664.283.81.81 0 0 0 .804-.407zm-2.346-1.08h1.706a.8.8 0 0 0-.22-.616.82.82 0 0 0-.61-.252.858.858 0 0 0-.875.869m5.175-1.367h1.524c.66 0 1.05.333 1.05.853a.72.72 0 0 1-.573.708v.053c.41.025.728.365.723.773 0 .585-.443.967-1.185.967h-1.54zm.66.508v.869h.662c.403 0 .596-.154.596-.438 0-.261-.168-.43-.522-.43H62.5zm0 1.355v.983h.792c.394 0 .605-.173.605-.49 0-.336-.239-.493-.689-.493H62.5"/></g></svg>